<!--?xml version="1.0" encoding="utf-8"?-->
<!-- Generator: Adobe Illustrator 22.1.0, SVG Export Plug-In . SVG Version: 6.00 Build 0)  -->
<svg version="1.1" id="_x31__1_" xmlns="http://www.w3.org/2000/svg" xmlns:xlink="http://www.w3.org/1999/xlink" x="0px" y="0px" viewBox="0 0 800 201.22" style="enable-background:new 0 0 800 201.22;" xml:space="preserve">
<style type="text/css">
	.st0{fill:#040000;}
</style>
<g>
	<path class="st0" d="M796.748,184.576c-4.473-7.67-12.788-18.543-39.618-23.002c-26.844-4.479-70.928,4.46-81.774-1.92
		c-10.874-6.387-22.372-69.004-14.387-75.394c10.4-8.318,29.711-2.875,40.901-1.918c11.168,0.956,18.522,0.318,26.837-0.316
		c8.294-0.641,11.086-7.262,11.086-7.262c1.907,0,6.99-0.638,9.535-6.359c2.545-5.725,0.419-1.76-5.289-11.933
		c-5.728-10.177-2.977-26.855-23.963-37.663c-6.352-3.276-12.294-5.499-17.822-6.98c0.02-5.455-1.949-12.01-5.187-11.268
		c-4.391,1.018-6.99,5.07-8.465,8.952c-6.847-0.48-12.87,0.09-18.049,0.951c-11.498,1.914-6.387,7.988-45.847,8.98
		c-31.804,0.802-69.302,18.44-91.556,31.794c-22.255,13.353-49.105,15.963-89.663,12.074c-14.77-1.416-102.3-7.8-127.848-30.161
		c-25.562-22.368-69.651-14.698-93.285-5.118C198.707,37.616,61.989,66.371,26.2,58.701c-35.776-7.666-28.744,13.422,0.637,14.056
		c29.396,0.642,110.539-7.025,127.793-12.142c17.247-5.104,88.168-20.436,92.641-16.609c4.472,3.839-10.867,28.117-3.197,53.034
		c3.197,14.057-5.111,27.471-5.111,27.471s-10.359,7.79-26.199,0.639c-30.666-13.834-46.005-3.62-54.299,0
		c-8.39,3.66-40.908,20.453-49.84,20.453c-8.954,0-21.082-1.283-23.648,1.276c-2.545,2.552-6.387,4.467-5.104,8.302
		c-4.48,2.558-7.67,4.473-6.394,8.938c-2.558,4.479-8.301,5.762-3.197,10.222c5.111,4.479,21.096,4.479,33.869-5.104
		c12.774-9.583,54.951-26.844,63.89-25.554c8.946,1.276,62.613,34.493,100.955,22.351c38.328-12.136,54.943-31.935,61.33-41.522
		c6.395-9.58,54.951,8.942,86.899,28.117c31.941,19.168,115.644,57.502,191.676,0.638c0,0,8.939-6.387,15.34,1.27
		c6.387,7.676,27.469,34.507,38.966,33.868c11.504-0.637,43.445-2.551,65.809-3.19c22.365-0.637,38.336,6.395,42.177,9.577
		c3.829,3.19,8.288,9.584,12.13,3.19c0,0,3.841,3.842,8.952-3.19C792.275,194.791,801.22,192.245,796.748,184.576z"></path>
</g>
</svg>
